<!DOCTYPE svg PUBLIC "-//W3C//DTD SVG 1.1//EN" "http://www.w3.org/Graphics/SVG/1.1/DTD/svg11.dtd">
<!-- Uploaded to: SVG Repo, www.svgrepo.com, Transformed by: SVG Repo Mixer Tools -->
<svg width="800px" height="800px" viewBox="-4.8 -4.8 57.60 57.60" xmlns="http://www.w3.org/2000/svg" fill="#ffffff" stroke="#ffffff" stroke-width="2.016" transform="rotate(0)matrix(-1, 0, 0, 1, 0, 0)">
<g id="SVGRepo_bgCarrier" stroke-width="0" transform="translate(0,0), scale(1)">
<path transform="translate(-4.8, -4.8), scale(3.5999999999999996)" fill="#1e2939" d="M9.166.33a2.25 2.25 0 00-2.332 0l-5.25 3.182A2.25 2.25 0 00.5 5.436v5.128a2.25 2.25 0 001.084 1.924l5.25 3.182a2.25 2.25 0 002.332 0l5.25-3.182a2.25 2.25 0 001.084-1.924V5.436a2.25 2.25 0 00-1.084-1.924L9.166.33z" strokewidth="0"/>
</g>
<g id="SVGRepo_tracerCarrier" stroke-linecap="round" stroke-linejoin="round" stroke="#CCCCCC" stroke-width="1.44">
<defs>
<style>.a{fill:none;stroke:#ffffff;stroke-linecap:round;stroke-linejoin:round;}</style>
</defs>
<path class="a" d="M36.07,17.05a4.07,4.07,0,0,1,1.4,2.14,7.6,7.6,0,0,1,.27,1.69m-6.18-3.83a4.48,4.48,0,0,1,4.51,0c1-3,.18-5.36,2.2-6.53A3.27,3.27,0,0,1,40,10h0a5.78,5.78,0,0,1,.67.08A6.88,6.88,0,0,1,43.5,12.4M31.56,17.05A2.38,2.38,0,0,0,32,18.48,5.58,5.58,0,0,0,33.75,20a5.85,5.85,0,0,0,4,.91c0,3.58-3.28,7.7-5.78,9.89-8.49,7.43-32.45,9.11-26.53,5,1.73-1.2,7.31-3.53,11.31-6.5,4.67-3.87,8.4-10,14.82-12.23Zm0,0"/>
</g>
<g id="SVGRepo_iconCarrier">
<defs>
<style>.a{fill:none;stroke:#ffffff;stroke-linecap:round;stroke-linejoin:round;}</style>
</defs>
<path class="a" d="M36.07,17.05a4.07,4.07,0,0,1,1.4,2.14,7.6,7.6,0,0,1,.27,1.69m-6.18-3.83a4.48,4.48,0,0,1,4.51,0c1-3,.18-5.36,2.2-6.53A3.27,3.27,0,0,1,40,10h0a5.78,5.78,0,0,1,.67.08A6.88,6.88,0,0,1,43.5,12.4M31.56,17.05A2.38,2.38,0,0,0,32,18.48,5.58,5.58,0,0,0,33.75,20a5.85,5.85,0,0,0,4,.91c0,3.58-3.28,7.7-5.78,9.89-8.49,7.43-32.45,9.11-26.53,5,1.73-1.2,7.31-3.53,11.31-6.5,4.67-3.87,8.4-10,14.82-12.23Zm0,0"/>
</g>
</svg>